<?xml version="1.0" encoding="UTF-8" standalone="no"?>
<!DOCTYPE svg PUBLIC "-//W3C//DTD SVG 1.1//EN" "http://www.w3.org/Graphics/SVG/1.1/DTD/svg11.dtd">
<svg version="1.1" xmlns="http://www.w3.org/2000/svg" xmlns:xlink="http://www.w3.org/1999/xlink" preserveAspectRatio="xMidYMid meet" viewBox="0 0 35 35" width="35" height="35"><defs><path d="M15.45 3.39C15.88 4 16.11 4.34 16.16 4.41C16.55 4.97 16.87 5.44 16.88 5.45C16.89 5.46 17.23 4.75 17.63 3.88C17.68 3.78 17.93 3.25 18.37 2.3C18.14 2.06 18.01 1.92 17.98 1.9C17.76 1.68 17.53 1.5 17.46 1.5C17.4 1.5 16.91 1.93 16.4 2.44C16.27 2.57 15.96 2.88 15.45 3.39Z" id="b1dmuqKBf7"></path><path d="M17.28 6.03C17.68 6.69 21.49 12.1 21.53 12.08C21.6 12.03 23.83 7.95 23.83 7.85C23.83 7.78 18.85 2.72 18.76 2.72C18.74 2.72 18.38 3.44 17.96 4.33C17.49 5.36 17.24 5.96 17.28 6.03Z" id="gneSaR1Xm"></path><path d="M8.46 10.41C8.26 10.6 7.29 11.57 5.55 13.31C6.85 14.89 7.58 15.77 7.72 15.94C8.92 17.39 10 18.71 10.14 18.87C10.27 19.04 10.4 19.16 10.42 19.13C10.48 19.07 16.61 6.06 16.61 5.99C16.61 5.91 15.14 3.79 15.08 3.79C15.05 3.79 14.2 4.62 13.2 5.64C12.19 6.66 10.05 8.8 8.46 10.41Z" id="e30tBnJ2gn"></path><path d="M10.82 19.53C10.78 19.62 11.38 20.39 12.77 22.07C12.9 22.23 13.56 23.04 14.76 24.49C15.08 23.9 15.26 23.58 15.3 23.51C18.62 17.48 21.22 12.68 21.19 12.61C21.16 12.54 17.1 6.62 17 6.53C16.98 6.49 15.58 9.38 13.91 12.94C12.24 16.5 10.84 19.46 10.82 19.53Z" id="f3BAYfHsrD"></path><path d="M21.89 12.51C21.84 12.59 21.92 12.77 22.23 13.23C22.47 13.56 23.96 15.72 25.55 18.03C27.15 20.34 28.49 22.28 28.55 22.33C28.62 22.41 28.74 22.33 29.14 21.91C29.56 21.46 29.82 21.04 31 18.88C31.1 18.72 31.55 17.88 32.38 16.38C31.87 15.86 31.59 15.58 31.53 15.52C31.07 15.06 29.25 13.22 27.47 11.44C27.26 11.22 26.18 10.14 24.25 8.21L23.1 10.29C22.32 11.72 21.91 12.46 21.89 12.51Z" id="bc3rN8laT"></path><path d="M15.1 24.9L17.6 27.94L20.11 30.98C22.54 28.54 23.88 27.19 24.15 26.92C26.38 24.68 28.2 22.82 28.21 22.8C28.21 22.78 27.2 21.28 25.95 19.48C24.71 17.68 23.3 15.64 22.83 14.94C22.35 14.25 21.87 13.55 21.75 13.4C21.74 13.38 21.67 13.29 21.55 13.12L18.33 19L15.1 24.9Z" id="ajFtNIHHU"></path><path d="M1.5 17.49C1.49 17.55 2.96 19.07 4.76 20.89C4.98 21.11 6.08 22.22 8.05 24.21C8.29 23.71 8.42 23.43 8.45 23.37C9.94 20.26 10.19 19.68 10.08 19.58C10.02 19.52 9.62 19.04 9.2 18.53C8.78 18.01 8.16 17.26 7.82 16.85C7.48 16.45 7.08 15.96 6.94 15.78C6.13 14.79 5.22 13.72 5.18 13.73C5.16 13.73 4.32 14.55 3.33 15.57C2.34 16.58 1.52 17.44 1.5 17.49Z" id="asFk0sodh"></path><path d="M31.34 19.29C31.31 19.35 31.15 19.65 30.87 20.17L32.18 18.84L33.5 17.5C33.28 17.28 33.16 17.16 33.14 17.13C32.95 16.93 32.76 16.77 32.74 16.77C32.72 16.77 32.5 17.15 32.26 17.6C32.02 18.05 31.6 18.81 31.34 19.29Z" id="dsZk4BWJS"></path><path d="M8.51 24.52C8.51 24.62 12.45 28.65 12.5 28.6C12.57 28.53 14.46 25.03 14.46 24.98C14.46 24.91 14.25 24.63 13.68 23.95C12.97 23.1 12.05 21.98 11.33 21.1C10.89 20.57 10.53 20.13 10.52 20.13C10.52 20.13 10.06 21.1 9.51 22.27C8.96 23.45 8.51 24.46 8.51 24.52Z" id="c1ByUnzylv"></path><path d="M12.84 29.02C14.19 30.37 14.94 31.11 15.09 31.26C16.33 32.49 17.4 33.5 17.46 33.5C17.52 33.5 18.06 33.01 18.67 32.41C18.74 32.34 19.11 31.97 19.76 31.32C19.36 30.83 19.14 30.56 19.09 30.51C18.72 30.06 18.06 29.25 17.61 28.72C16.72 27.63 16.79 27.72 15.94 26.7C15.61 26.31 15.25 25.85 15.12 25.69C15 25.53 14.89 25.4 14.85 25.4C14.83 25.41 14.36 26.22 13.83 27.21C13.69 27.46 13.37 28.06 12.84 29.02Z" id="gwAIsbRqP"></path></defs><g><g><g><use xlink:href="#b1dmuqKBf7" opacity="1" fill="#ff4081" fill-opacity="1"></use><g><use xlink:href="#b1dmuqKBf7" opacity="1" fill-opacity="0" stroke="#000000" stroke-width="1" stroke-opacity="0"></use></g></g><g><use xlink:href="#gneSaR1Xm" opacity="1" fill="#ff4081" fill-opacity="1"></use><g><use xlink:href="#gneSaR1Xm" opacity="1" fill-opacity="0" stroke="#000000" stroke-width="1" stroke-opacity="0"></use></g></g><g><use xlink:href="#e30tBnJ2gn" opacity="1" fill="#ff4081" fill-opacity="1"></use><g><use xlink:href="#e30tBnJ2gn" opacity="1" fill-opacity="0" stroke="#000000" stroke-width="1" stroke-opacity="0"></use></g></g><g><use xlink:href="#f3BAYfHsrD" opacity="1" fill="#ff4081" fill-opacity="1"></use><g><use xlink:href="#f3BAYfHsrD" opacity="1" fill-opacity="0" stroke="#000000" stroke-width="1" stroke-opacity="0"></use></g></g><g><use xlink:href="#bc3rN8laT" opacity="1" fill="#ff4081" fill-opacity="1"></use><g><use xlink:href="#bc3rN8laT" opacity="1" fill-opacity="0" stroke="#000000" stroke-width="1" stroke-opacity="0"></use></g></g><g><use xlink:href="#ajFtNIHHU" opacity="1" fill="#ff4081" fill-opacity="1"></use><g><use xlink:href="#ajFtNIHHU" opacity="1" fill-opacity="0" stroke="#000000" stroke-width="1" stroke-opacity="0"></use></g></g><g><use xlink:href="#asFk0sodh" opacity="1" fill="#ff4081" fill-opacity="1"></use><g><use xlink:href="#asFk0sodh" opacity="1" fill-opacity="0" stroke="#000000" stroke-width="1" stroke-opacity="0"></use></g></g><g><use xlink:href="#dsZk4BWJS" opacity="1" fill="#ff4081" fill-opacity="1"></use><g><use xlink:href="#dsZk4BWJS" opacity="1" fill-opacity="0" stroke="#000000" stroke-width="1" stroke-opacity="0"></use></g></g><g><use xlink:href="#c1ByUnzylv" opacity="1" fill="#ff4081" fill-opacity="1"></use><g><use xlink:href="#c1ByUnzylv" opacity="1" fill-opacity="0" stroke="#000000" stroke-width="1" stroke-opacity="0"></use></g></g><g><use xlink:href="#gwAIsbRqP" opacity="1" fill="#ff4081" fill-opacity="1"></use><g><use xlink:href="#gwAIsbRqP" opacity="1" fill-opacity="0" stroke="#000000" stroke-width="1" stroke-opacity="0"></use></g></g></g></g></svg>